solid Default
  facet normal 9.969173e-01 -7.845910e-02 0.000000e+00
    outer loop
      vertex -3.209987e+00 1.000841e+01 0.000000e+00
      vertex -3.209987e+00 1.000841e+01 4.000000e+00
      vertex -3.250000e+00 9.500000e+00 0.000000e+00
    endloop
  endfacet
  facet normal 9.969173e-01 -7.845910e-02 0.000000e+00
    outer loop
      vertex -3.250000e+00 9.500000e+00 0.000000e+00
      vertex -3.209987e+00 1.000841e+01 4.000000e+00
      vertex -3.250000e+00 9.500000e+00 4.000000e+00
    endloop
  endfacet
  facet normal 9.969173e-01 7.845910e-02 0.000000e+00
    outer loop
      vertex -3.250000e+00 9.500000e+00 0.000000e+00
      vertex -3.250000e+00 9.500000e+00 4.000000e+00
      vertex -3.209987e+00 8.991588e+00 0.000000e+00
    endloop
  endfacet
  facet normal 9.969173e-01 7.845910e-02 0.000000e+00
    outer loop
      vertex -3.209987e+00 8.991588e+00 0.000000e+00
      vertex -3.250000e+00 9.500000e+00 4.000000e+00
      vertex -3.209987e+00 8.991588e+00 4.000000e+00
    endloop
  endfacet
  facet normal 9.723699e-01 2.334454e-01 0.000000e+00
    outer loop
      vertex -3.209987e+00 8.991588e+00 0.000000e+00
      vertex -3.209987e+00 8.991588e+00 4.000000e+00
      vertex -3.090934e+00 8.495695e+00 0.000000e+00
    endloop
  endfacet
  facet normal 9.723699e-01 2.334454e-01 0.000000e+00
    outer loop
      vertex -3.090934e+00 8.495695e+00 0.000000e+00
      vertex -3.209987e+00 8.991588e+00 4.000000e+00
      vertex -3.090934e+00 8.495695e+00 4.000000e+00
    endloop
  endfacet
  facet normal 9.238795e-01 3.826834e-01 0.000000e+00
    outer loop
      vertex -3.090934e+00 8.495695e+00 0.000000e+00
      vertex -3.090934e+00 8.495695e+00 4.000000e+00
      vertex -2.895771e+00 8.024530e+00 0.000000e+00
    endloop
  endfacet
  facet normal 9.238795e-01 3.826834e-01 0.000000e+00
    outer loop
      vertex -2.895771e+00 8.024530e+00 0.000000e+00
      vertex -3.090934e+00 8.495695e+00 4.000000e+00
      vertex -2.895771e+00 8.024530e+00 4.000000e+00
    endloop
  endfacet
  facet normal 8.526402e-01 5.224985e-01 0.000000e+00
    outer loop
      vertex -2.895771e+00 8.024530e+00 0.000000e+00
      vertex -2.895771e+00 8.024530e+00 4.000000e+00
      vertex -2.629305e+00 7.589698e+00 0.000000e+00
    endloop
  endfacet
  facet normal 8.526402e-01 5.224985e-01 0.000000e+00
    outer loop
      vertex -2.629305e+00 7.589698e+00 0.000000e+00
      vertex -2.895771e+00 8.024530e+00 4.000000e+00
      vertex -2.629305e+00 7.589698e+00 4.000000e+00
    endloop
  endfacet
  facet normal 7.604060e-01 6.494480e-01 0.000000e+00
    outer loop
      vertex -2.629305e+00 7.589698e+00 0.000000e+00
      vertex -2.629305e+00 7.589698e+00 4.000000e+00
      vertex -2.298097e+00 7.201903e+00 0.000000e+00
    endloop
  endfacet
  facet normal 7.604060e-01 6.494480e-01 0.000000e+00
    outer loop
      vertex -2.298097e+00 7.201903e+00 0.000000e+00
      vertex -2.629305e+00 7.589698e+00 4.000000e+00
      vertex -2.298097e+00 7.201903e+00 4.000000e+00
    endloop
  endfacet
  facet normal 6.494480e-01 7.604060e-01 0.000000e+00
    outer loop
      vertex -2.298097e+00 7.201903e+00 0.000000e+00
      vertex -2.298097e+00 7.201903e+00 4.000000e+00
      vertex -1.910302e+00 6.870695e+00 0.000000e+00
    endloop
  endfacet
  facet normal 6.494480e-01 7.604060e-01 0.000000e+00
    outer loop
      vertex -1.910302e+00 6.870695e+00 0.000000e+00
      vertex -2.298097e+00 7.201903e+00 4.000000e+00
      vertex -1.910302e+00 6.870695e+00 4.000000e+00
    endloop
  endfacet
  facet normal 5.224985e-01 8.526402e-01 0.000000e+00
    outer loop
      vertex -1.910302e+00 6.870695e+00 0.000000e+00
      vertex -1.910302e+00 6.870695e+00 4.000000e+00
      vertex -1.475469e+00 6.604229e+00 0.000000e+00
    endloop
  endfacet
  facet normal 5.224985e-01 8.526402e-01 0.000000e+00
    outer loop
      vertex -1.475469e+00 6.604229e+00 0.000000e+00
      vertex -1.910302e+00 6.870695e+00 4.000000e+00
      vertex -1.475469e+00 6.604229e+00 4.000000e+00
    endloop
  endfacet
  facet normal 3.826834e-01 9.238795e-01 0.000000e+00
    outer loop
      vertex -1.475469e+00 6.604229e+00 0.000000e+00
      vertex -1.475469e+00 6.604229e+00 4.000000e+00
      vertex -1.004305e+00 6.409066e+00 0.000000e+00
    endloop
  endfacet
  facet normal 3.826834e-01 9.238795e-01 0.000000e+00
    outer loop
      vertex -1.004305e+00 6.409066e+00 0.000000e+00
      vertex -1.475469e+00 6.604229e+00 4.000000e+00
      vertex -1.004305e+00 6.409066e+00 4.000000e+00
    endloop
  endfacet
  facet normal 2.334454e-01 9.723699e-01 0.000000e+00
    outer loop
      vertex -1.004305e+00 6.409066e+00 0.000000e+00
      vertex -1.004305e+00 6.409066e+00 4.000000e+00
      vertex -5.084120e-01 6.290013e+00 0.000000e+00
    endloop
  endfacet
  facet normal 2.334454e-01 9.723699e-01 0.000000e+00
    outer loop
      vertex -5.084120e-01 6.290013e+00 0.000000e+00
      vertex -1.004305e+00 6.409066e+00 4.000000e+00
      vertex -5.084120e-01 6.290013e+00 4.000000e+00
    endloop
  endfacet
  facet normal 7.845910e-02 9.969173e-01 0.000000e+00
    outer loop
      vertex -5.084120e-01 6.290013e+00 0.000000e+00
      vertex -5.084120e-01 6.290013e+00 4.000000e+00
      vertex 1.990051e-16 6.250000e+00 0.000000e+00
    endloop
  endfacet
  facet normal 7.845910e-02 9.969173e-01 0.000000e+00
    outer loop
      vertex 1.990051e-16 6.250000e+00 0.000000e+00
      vertex -5.084120e-01 6.290013e+00 4.000000e+00
      vertex 1.990051e-16 6.250000e+00 4.000000e+00
    endloop
  endfacet
  facet normal -7.845910e-02 9.969173e-01 0.000000e+00
    outer loop
      vertex 1.990051e-16 6.250000e+00 0.000000e+00
      vertex 1.990051e-16 6.250000e+00 4.000000e+00
      vertex 5.084120e-01 6.290013e+00 0.000000e+00
    endloop
  endfacet
  facet normal -7.845910e-02 9.969173e-01 0.000000e+00
    outer loop
      vertex 5.084120e-01 6.290013e+00 0.000000e+00
      vertex 1.990051e-16 6.250000e+00 4.000000e+00
      vertex 5.084120e-01 6.290013e+00 4.000000e+00
    endloop
  endfacet
  facet normal -2.334454e-01 9.723699e-01 0.000000e+00
    outer loop
      vertex 5.084120e-01 6.290013e+00 0.000000e+00
      vertex 5.084120e-01 6.290013e+00 4.000000e+00
      vertex 1.004305e+00 6.409066e+00 0.000000e+00
    endloop
  endfacet
  facet normal -2.334454e-01 9.723699e-01 0.000000e+00
    outer loop
      vertex 1.004305e+00 6.409066e+00 0.000000e+00
      vertex 5.084120e-01 6.290013e+00 4.000000e+00
      vertex 1.004305e+00 6.409066e+00 4.000000e+00
    endloop
  endfacet
  facet normal -3.826834e-01 9.238795e-01 0.000000e+00
    outer loop
      vertex 1.004305e+00 6.409066e+00 0.000000e+00
      vertex 1.004305e+00 6.409066e+00 4.000000e+00
      vertex 1.475469e+00 6.604229e+00 0.000000e+00
    endloop
  endfacet
  facet normal -3.826834e-01 9.238795e-01 0.000000e+00
    outer loop
      vertex 1.475469e+00 6.604229e+00 0.000000e+00
      vertex 1.004305e+00 6.409066e+00 4.000000e+00
      vertex 1.475469e+00 6.604229e+00 4.000000e+00
    endloop
  endfacet
  facet normal -5.224985e-01 8.526402e-01 0.000000e+00
    outer loop
      vertex 1.475469e+00 6.604229e+00 0.000000e+00
      vertex 1.475469e+00 6.604229e+00 4.000000e+00
      vertex 1.910302e+00 6.870695e+00 0.000000e+00
    endloop
  endfacet
  facet normal -5.224985e-01 8.526402e-01 0.000000e+00
    outer loop
      vertex 1.910302e+00 6.870695e+00 0.000000e+00
      vertex 1.475469e+00 6.604229e+00 4.000000e+00
      vertex 1.910302e+00 6.870695e+00 4.000000e+00
    endloop
  endfacet
  facet normal -6.494480e-01 7.604060e-01 0.000000e+00
    outer loop
      vertex 1.910302e+00 6.870695e+00 0.000000e+00
      vertex 1.910302e+00 6.870695e+00 4.000000e+00
      vertex 2.298097e+00 7.201903e+00 0.000000e+00
    endloop
  endfacet
  facet normal -6.494480e-01 7.604060e-01 0.000000e+00
    outer loop
      vertex 2.298097e+00 7.201903e+00 0.000000e+00
      vertex 1.910302e+00 6.870695e+00 4.000000e+00
      vertex 2.298097e+00 7.201903e+00 4.000000e+00
    endloop
  endfacet
  facet normal -7.604060e-01 6.494480e-01 0.000000e+00
    outer loop
      vertex 2.298097e+00 7.201903e+00 0.000000e+00
      vertex 2.298097e+00 7.201903e+00 4.000000e+00
      vertex 2.629305e+00 7.589698e+00 0.000000e+00
    endloop
  endfacet
  facet normal -7.604060e-01 6.494480e-01 0.000000e+00
    outer loop
      vertex 2.629305e+00 7.589698e+00 0.000000e+00
      vertex 2.298097e+00 7.201903e+00 4.000000e+00
      vertex 2.629305e+00 7.589698e+00 4.000000e+00
    endloop
  endfacet
  facet normal -8.526402e-01 5.224985e-01 0.000000e+00
    outer loop
      vertex 2.629305e+00 7.589698e+00 0.000000e+00
      vertex 2.629305e+00 7.589698e+00 4.000000e+00
      vertex 2.895771e+00 8.024530e+00 0.000000e+00
    endloop
  endfacet
  facet normal -8.526402e-01 5.224985e-01 0.000000e+00
    outer loop
      vertex 2.895771e+00 8.024530e+00 0.000000e+00
      vertex 2.629305e+00 7.589698e+00 4.000000e+00
      vertex 2.895771e+00 8.024530e+00 4.000000e+00
    endloop
  endfacet
  facet normal -9.238795e-01 3.826834e-01 0.000000e+00
    outer loop
      vertex 2.895771e+00 8.024530e+00 0.000000e+00
      vertex 2.895771e+00 8.024530e+00 4.000000e+00
      vertex 3.090934e+00 8.495695e+00 0.000000e+00
    endloop
  endfacet
  facet normal -9.238795e-01 3.826834e-01 0.000000e+00
    outer loop
      vertex 3.090934e+00 8.495695e+00 0.000000e+00
      vertex 2.895771e+00 8.024530e+00 4.000000e+00
      vertex 3.090934e+00 8.495695e+00 4.000000e+00
    endloop
  endfacet
  facet normal -9.723699e-01 2.334454e-01 0.000000e+00
    outer loop
      vertex 3.090934e+00 8.495695e+00 0.000000e+00
      vertex 3.090934e+00 8.495695e+00 4.000000e+00
      vertex 3.209987e+00 8.991588e+00 0.000000e+00
    endloop
  endfacet
  facet normal -9.723699e-01 2.334454e-01 0.000000e+00
    outer loop
      vertex 3.209987e+00 8.991588e+00 0.000000e+00
      vertex 3.090934e+00 8.495695e+00 4.000000e+00
      vertex 3.209987e+00 8.991588e+00 4.000000e+00
    endloop
  endfacet
  facet normal -9.969173e-01 7.845910e-02 0.000000e+00
    outer loop
      vertex 3.209987e+00 8.991588e+00 0.000000e+00
      vertex 3.209987e+00 8.991588e+00 4.000000e+00
      vertex 3.250000e+00 9.500000e+00 0.000000e+00
    endloop
  endfacet
  facet normal -9.969173e-01 7.845910e-02 0.000000e+00
    outer loop
      vertex 3.250000e+00 9.500000e+00 0.000000e+00
      vertex 3.209987e+00 8.991588e+00 4.000000e+00
      vertex 3.250000e+00 9.500000e+00 4.000000e+00
    endloop
  endfacet
  facet normal -9.969173e-01 -7.845910e-02 0.000000e+00
    outer loop
      vertex 3.250000e+00 9.500000e+00 0.000000e+00
      vertex 3.250000e+00 9.500000e+00 4.000000e+00
      vertex 3.209987e+00 1.000841e+01 0.000000e+00
    endloop
  endfacet
  facet normal -9.969173e-01 -7.845910e-02 0.000000e+00
    outer loop
      vertex 3.209987e+00 1.000841e+01 0.000000e+00
      vertex 3.250000e+00 9.500000e+00 4.000000e+00
      vertex 3.209987e+00 1.000841e+01 4.000000e+00
    endloop
  endfacet
  facet normal -9.723699e-01 -2.334454e-01 0.000000e+00
    outer loop
      vertex 3.209987e+00 1.000841e+01 0.000000e+00
      vertex 3.209987e+00 1.000841e+01 4.000000e+00
      vertex 3.090934e+00 1.050430e+01 0.000000e+00
    endloop
  endfacet
  facet normal -9.723699e-01 -2.334454e-01 0.000000e+00
    outer loop
      vertex 3.090934e+00 1.050430e+01 0.000000e+00
      vertex 3.209987e+00 1.000841e+01 4.000000e+00
      vertex 3.090934e+00 1.050430e+01 4.000000e+00
    endloop
  endfacet
  facet normal -9.238795e-01 -3.826834e-01 0.000000e+00
    outer loop
      vertex 3.090934e+00 1.050430e+01 0.000000e+00
      vertex 3.090934e+00 1.050430e+01 4.000000e+00
      vertex 2.895771e+00 1.097547e+01 0.000000e+00
    endloop
  endfacet
  facet normal -9.238795e-01 -3.826834e-01 0.000000e+00
    outer loop
      vertex 2.895771e+00 1.097547e+01 0.000000e+00
      vertex 3.090934e+00 1.050430e+01 4.000000e+00
      vertex 2.895771e+00 1.097547e+01 4.000000e+00
    endloop
  endfacet
  facet normal -8.526402e-01 -5.224985e-01 0.000000e+00
    outer loop
      vertex 2.895771e+00 1.097547e+01 0.000000e+00
      vertex 2.895771e+00 1.097547e+01 4.000000e+00
      vertex 2.629305e+00 1.141030e+01 0.000000e+00
    endloop
  endfacet
  facet normal -8.526402e-01 -5.224985e-01 0.000000e+00
    outer loop
      vertex 2.629305e+00 1.141030e+01 0.000000e+00
      vertex 2.895771e+00 1.097547e+01 4.000000e+00
      vertex 2.629305e+00 1.141030e+01 4.000000e+00
    endloop
  endfacet
  facet normal -7.604060e-01 -6.494480e-01 0.000000e+00
    outer loop
      vertex 2.629305e+00 1.141030e+01 0.000000e+00
      vertex 2.629305e+00 1.141030e+01 4.000000e+00
      vertex 2.298097e+00 1.179810e+01 0.000000e+00
    endloop
  endfacet
  facet normal -7.604060e-01 -6.494480e-01 0.000000e+00
    outer loop
      vertex 2.298097e+00 1.179810e+01 0.000000e+00
      vertex 2.629305e+00 1.141030e+01 4.000000e+00
      vertex 2.298097e+00 1.179810e+01 4.000000e+00
    endloop
  endfacet
  facet normal -6.494480e-01 -7.604060e-01 0.000000e+00
    outer loop
      vertex 2.298097e+00 1.179810e+01 0.000000e+00
      vertex 2.298097e+00 1.179810e+01 4.000000e+00
      vertex 1.910302e+00 1.212930e+01 0.000000e+00
    endloop
  endfacet
  facet normal -6.494480e-01 -7.604060e-01 0.000000e+00
    outer loop
      vertex 1.910302e+00 1.212930e+01 0.000000e+00
      vertex 2.298097e+00 1.179810e+01 4.000000e+00
      vertex 1.910302e+00 1.212930e+01 4.000000e+00
    endloop
  endfacet
  facet normal -5.224985e-01 -8.526402e-01 0.000000e+00
    outer loop
      vertex 1.910302e+00 1.212930e+01 0.000000e+00
      vertex 1.910302e+00 1.212930e+01 4.000000e+00
      vertex 1.475469e+00 1.239577e+01 0.000000e+00
    endloop
  endfacet
  facet normal -5.224985e-01 -8.526402e-01 0.000000e+00
    outer loop
      vertex 1.475469e+00 1.239577e+01 0.000000e+00
      vertex 1.910302e+00 1.212930e+01 4.000000e+00
      vertex 1.475469e+00 1.239577e+01 4.000000e+00
    endloop
  endfacet
  facet normal -3.826834e-01 -9.238795e-01 0.000000e+00
    outer loop
      vertex 1.475469e+00 1.239577e+01 0.000000e+00
      vertex 1.475469e+00 1.239577e+01 4.000000e+00
      vertex 1.004305e+00 1.259093e+01 0.000000e+00
    endloop
  endfacet
  facet normal -3.826834e-01 -9.238795e-01 0.000000e+00
    outer loop
      vertex 1.004305e+00 1.259093e+01 0.000000e+00
      vertex 1.475469e+00 1.239577e+01 4.000000e+00
      vertex 1.004305e+00 1.259093e+01 4.000000e+00
    endloop
  endfacet
  facet normal -2.334454e-01 -9.723699e-01 0.000000e+00
    outer loop
      vertex 1.004305e+00 1.259093e+01 0.000000e+00
      vertex 1.004305e+00 1.259093e+01 4.000000e+00
      vertex 5.084120e-01 1.270999e+01 0.000000e+00
    endloop
  endfacet
  facet normal -2.334454e-01 -9.723699e-01 0.000000e+00
    outer loop
      vertex 5.084120e-01 1.270999e+01 0.000000e+00
      vertex 1.004305e+00 1.259093e+01 4.000000e+00
      vertex 5.084120e-01 1.270999e+01 4.000000e+00
    endloop
  endfacet
  facet normal -7.845910e-02 -9.969173e-01 0.000000e+00
    outer loop
      vertex 5.084120e-01 1.270999e+01 0.000000e+00
      vertex 5.084120e-01 1.270999e+01 4.000000e+00
      vertex 1.990051e-16 1.275000e+01 0.000000e+00
    endloop
  endfacet
  facet normal -7.845910e-02 -9.969173e-01 0.000000e+00
    outer loop
      vertex 1.990051e-16 1.275000e+01 0.000000e+00
      vertex 5.084120e-01 1.270999e+01 4.000000e+00
      vertex 1.990051e-16 1.275000e+01 4.000000e+00
    endloop
  endfacet
  facet normal 7.845910e-02 -9.969173e-01 0.000000e+00
    outer loop
      vertex 1.990051e-16 1.275000e+01 0.000000e+00
      vertex 1.990051e-16 1.275000e+01 4.000000e+00
      vertex -5.084120e-01 1.270999e+01 0.000000e+00
    endloop
  endfacet
  facet normal 7.845910e-02 -9.969173e-01 0.000000e+00
    outer loop
      vertex -5.084120e-01 1.270999e+01 0.000000e+00
      vertex 1.990051e-16 1.275000e+01 4.000000e+00
      vertex -5.084120e-01 1.270999e+01 4.000000e+00
    endloop
  endfacet
  facet normal 2.334454e-01 -9.723699e-01 0.000000e+00
    outer loop
      vertex -5.084120e-01 1.270999e+01 0.000000e+00
      vertex -5.084120e-01 1.270999e+01 4.000000e+00
      vertex -1.004305e+00 1.259093e+01 0.000000e+00
    endloop
  endfacet
  facet normal 2.334454e-01 -9.723699e-01 0.000000e+00
    outer loop
      vertex -1.004305e+00 1.259093e+01 0.000000e+00
      vertex -5.084120e-01 1.270999e+01 4.000000e+00
      vertex -1.004305e+00 1.259093e+01 4.000000e+00
    endloop
  endfacet
  facet normal 3.826834e-01 -9.238795e-01 0.000000e+00
    outer loop
      vertex -1.004305e+00 1.259093e+01 0.000000e+00
      vertex -1.004305e+00 1.259093e+01 4.000000e+00
      vertex -1.475469e+00 1.239577e+01 0.000000e+00
    endloop
  endfacet
  facet normal 3.826834e-01 -9.238795e-01 0.000000e+00
    outer loop
      vertex -1.475469e+00 1.239577e+01 0.000000e+00
      vertex -1.004305e+00 1.259093e+01 4.000000e+00
      vertex -1.475469e+00 1.239577e+01 4.000000e+00
    endloop
  endfacet
  facet normal 5.224985e-01 -8.526402e-01 0.000000e+00
    outer loop
      vertex -1.475469e+00 1.239577e+01 0.000000e+00
      vertex -1.475469e+00 1.239577e+01 4.000000e+00
      vertex -1.910302e+00 1.212930e+01 0.000000e+00
    endloop
  endfacet
  facet normal 5.224985e-01 -8.526402e-01 0.000000e+00
    outer loop
      vertex -1.910302e+00 1.212930e+01 0.000000e+00
      vertex -1.475469e+00 1.239577e+01 4.000000e+00
      vertex -1.910302e+00 1.212930e+01 4.000000e+00
    endloop
  endfacet
  facet normal 6.494480e-01 -7.604060e-01 0.000000e+00
    outer loop
      vertex -1.910302e+00 1.212930e+01 0.000000e+00
      vertex -1.910302e+00 1.212930e+01 4.000000e+00
      vertex -2.298097e+00 1.179810e+01 0.000000e+00
    endloop
  endfacet
  facet normal 6.494480e-01 -7.604060e-01 0.000000e+00
    outer loop
      vertex -2.298097e+00 1.179810e+01 0.000000e+00
      vertex -1.910302e+00 1.212930e+01 4.000000e+00
      vertex -2.298097e+00 1.179810e+01 4.000000e+00
    endloop
  endfacet
  facet normal 7.604060e-01 -6.494480e-01 0.000000e+00
    outer loop
      vertex -2.298097e+00 1.179810e+01 0.000000e+00
      vertex -2.298097e+00 1.179810e+01 4.000000e+00
      vertex -2.629305e+00 1.141030e+01 0.000000e+00
    endloop
  endfacet
  facet normal 7.604060e-01 -6.494480e-01 0.000000e+00
    outer loop
      vertex -2.629305e+00 1.141030e+01 0.000000e+00
      vertex -2.298097e+00 1.179810e+01 4.000000e+00
      vertex -2.629305e+00 1.141030e+01 4.000000e+00
    endloop
  endfacet
  facet normal 8.526402e-01 -5.224985e-01 0.000000e+00
    outer loop
      vertex -2.629305e+00 1.141030e+01 0.000000e+00
      vertex -2.629305e+00 1.141030e+01 4.000000e+00
      vertex -2.895771e+00 1.097547e+01 0.000000e+00
    endloop
  endfacet
  facet normal 8.526402e-01 -5.224985e-01 0.000000e+00
    outer loop
      vertex -2.895771e+00 1.097547e+01 0.000000e+00
      vertex -2.629305e+00 1.141030e+01 4.000000e+00
      vertex -2.895771e+00 1.097547e+01 4.000000e+00
    endloop
  endfacet
  facet normal 9.238795e-01 -3.826834e-01 0.000000e+00
    outer loop
      vertex -2.895771e+00 1.097547e+01 0.000000e+00
      vertex -2.895771e+00 1.097547e+01 4.000000e+00
      vertex -3.090934e+00 1.050430e+01 0.000000e+00
    endloop
  endfacet
  facet normal 9.238795e-01 -3.826834e-01 0.000000e+00
    outer loop
      vertex -3.090934e+00 1.050430e+01 0.000000e+00
      vertex -2.895771e+00 1.097547e+01 4.000000e+00
      vertex -3.090934e+00 1.050430e+01 4.000000e+00
    endloop
  endfacet
  facet normal 9.723699e-01 -2.334454e-01 0.000000e+00
    outer loop
      vertex -3.090934e+00 1.050430e+01 0.000000e+00
      vertex -3.090934e+00 1.050430e+01 4.000000e+00
      vertex -3.209987e+00 1.000841e+01 0.000000e+00
    endloop
  endfacet
  facet normal 9.723699e-01 -2.334454e-01 0.000000e+00
    outer loop
      vertex -3.209987e+00 1.000841e+01 0.000000e+00
      vertex -3.090934e+00 1.050430e+01 4.000000e+00
      vertex -3.209987e+00 1.000841e+01 4.000000e+00
    endloop
  endfacet
  facet normal -1.000000e+00 0.000000e+00 0.000000e+00
    outer loop
      vertex 2.300000e+01 2.800000e+00 4.000000e+00
      vertex 2.300000e+01 1.750000e+01 2.500000e+01
      vertex 2.300000e+01 1.950000e+01 4.000000e+00
    endloop
  endfacet
  facet normal -1.000000e+00 0.000000e+00 0.000000e+00
    outer loop
      vertex 2.300000e+01 1.950000e+01 4.000000e+00
      vertex 2.300000e+01 1.750000e+01 2.500000e+01
      vertex 2.300000e+01 1.950000e+01 2.500000e+01
    endloop
  endfacet
  facet normal 0.000000e+00 0.000000e+00 1.000000e+00
    outer loop
      vertex -3.209987e+00 8.991588e+00 4.000000e+00
      vertex -3.250000e+00 9.500000e+00 4.000000e+00
      vertex -2.300000e+01 2.800000e+00 4.000000e+00
    endloop
  endfacet
  facet normal 0.000000e+00 0.000000e+00 1.000000e+00
    outer loop
      vertex -2.300000e+01 2.800000e+00 4.000000e+00
      vertex -3.250000e+00 9.500000e+00 4.000000e+00
      vertex -3.209987e+00 1.000841e+01 4.000000e+00
    endloop
  endfacet
  facet normal 0.000000e+00 0.000000e+00 1.000000e+00
    outer loop
      vertex -2.300000e+01 2.800000e+00 4.000000e+00
      vertex -3.209987e+00 1.000841e+01 4.000000e+00
      vertex -3.090934e+00 1.050430e+01 4.000000e+00
    endloop
  endfacet
  facet normal 0.000000e+00 0.000000e+00 1.000000e+00
    outer loop
      vertex -2.300000e+01 2.800000e+00 4.000000e+00
      vertex -3.090934e+00 1.050430e+01 4.000000e+00
      vertex -2.300000e+01 1.950000e+01 4.000000e+00
    endloop
  endfacet
  facet normal 0.000000e+00 0.000000e+00 1.000000e+00
    outer loop
      vertex -2.300000e+01 1.950000e+01 4.000000e+00
      vertex -3.090934e+00 1.050430e+01 4.000000e+00
      vertex -2.895771e+00 1.097547e+01 4.000000e+00
    endloop
  endfacet
  facet normal 0.000000e+00 0.000000e+00 1.000000e+00
    outer loop
      vertex -2.300000e+01 1.950000e+01 4.000000e+00
      vertex -2.895771e+00 1.097547e+01 4.000000e+00
      vertex -2.629305e+00 1.141030e+01 4.000000e+00
    endloop
  endfacet
  facet normal 0.000000e+00 0.000000e+00 1.000000e+00
    outer loop
      vertex -2.629305e+00 1.141030e+01 4.000000e+00
      vertex -2.298097e+00 1.179810e+01 4.000000e+00
      vertex -2.300000e+01 1.950000e+01 4.000000e+00
    endloop
  endfacet
  facet normal 0.000000e+00 0.000000e+00 1.000000e+00
    outer loop
      vertex -2.300000e+01 1.950000e+01 4.000000e+00
      vertex -2.298097e+00 1.179810e+01 4.000000e+00
      vertex -1.910302e+00 1.212930e+01 4.000000e+00
    endloop
  endfacet
  facet normal 0.000000e+00 0.000000e+00 1.000000e+00
    outer loop
      vertex -2.300000e+01 1.950000e+01 4.000000e+00
      vertex -1.910302e+00 1.212930e+01 4.000000e+00
      vertex -1.475469e+00 1.239577e+01 4.000000e+00
    endloop
  endfacet
  facet normal 0.000000e+00 0.000000e+00 1.000000e+00
    outer loop
      vertex -1.475469e+00 1.239577e+01 4.000000e+00
      vertex -1.004305e+00 1.259093e+01 4.000000e+00
      vertex -2.300000e+01 1.950000e+01 4.000000e+00
    endloop
  endfacet
  facet normal 0.000000e+00 0.000000e+00 1.000000e+00
    outer loop
      vertex -2.300000e+01 1.950000e+01 4.000000e+00
      vertex -1.004305e+00 1.259093e+01 4.000000e+00
      vertex -5.084120e-01 1.270999e+01 4.000000e+00
    endloop
  endfacet
  facet normal 0.000000e+00 0.000000e+00 1.000000e+00
    outer loop
      vertex -2.300000e+01 1.950000e+01 4.000000e+00
      vertex -5.084120e-01 1.270999e+01 4.000000e+00
      vertex 1.990051e-16 1.275000e+01 4.000000e+00
    endloop
  endfacet
  facet normal 0.000000e+00 0.000000e+00 1.000000e+00
    outer loop
      vertex -2.300000e+01 1.950000e+01 4.000000e+00
      vertex 1.990051e-16 1.275000e+01 4.000000e+00
      vertex 2.300000e+01 1.950000e+01 4.000000e+00
    endloop
  endfacet
  facet normal 0.000000e+00 0.000000e+00 1.000000e+00
    outer loop
      vertex 2.300000e+01 1.950000e+01 4.000000e+00
      vertex 1.990051e-16 1.275000e+01 4.000000e+00
      vertex 5.084120e-01 1.270999e+01 4.000000e+00
    endloop
  endfacet
  facet normal 0.000000e+00 0.000000e+00 1.000000e+00
    outer loop
      vertex 2.300000e+01 1.950000e+01 4.000000e+00
      vertex 5.084120e-01 1.270999e+01 4.000000e+00
      vertex 1.004305e+00 1.259093e+01 4.000000e+00
    endloop
  endfacet
  facet normal 0.000000e+00 0.000000e+00 1.000000e+00
    outer loop
      vertex 1.004305e+00 1.259093e+01 4.000000e+00
      vertex 1.475469e+00 1.239577e+01 4.000000e+00
      vertex 2.300000e+01 1.950000e+01 4.000000e+00
    endloop
  endfacet
  facet normal 0.000000e+00 0.000000e+00 1.000000e+00
    outer loop
      vertex 2.300000e+01 1.950000e+01 4.000000e+00
      vertex 1.475469e+00 1.239577e+01 4.000000e+00
      vertex 1.910302e+00 1.212930e+01 4.000000e+00
    endloop
  endfacet
  facet normal 0.000000e+00 0.000000e+00 1.000000e+00
    outer loop
      vertex 2.300000e+01 1.950000e+01 4.000000e+00
      vertex 1.910302e+00 1.212930e+01 4.000000e+00
      vertex 2.298097e+00 1.179810e+01 4.000000e+00
    endloop
  endfacet
  facet normal 0.000000e+00 0.000000e+00 1.000000e+00
    outer loop
      vertex 2.298097e+00 1.179810e+01 4.000000e+00
      vertex 2.629305e+00 1.141030e+01 4.000000e+00
      vertex 2.300000e+01 1.950000e+01 4.000000e+00
    endloop
  endfacet
  facet normal 0.000000e+00 0.000000e+00 1.000000e+00
    outer loop
      vertex 2.300000e+01 1.950000e+01 4.000000e+00
      vertex 2.629305e+00 1.141030e+01 4.000000e+00
      vertex 2.895771e+00 1.097547e+01 4.000000e+00
    endloop
  endfacet
  facet normal 0.000000e+00 0.000000e+00 1.000000e+00
    outer loop
      vertex 2.300000e+01 1.950000e+01 4.000000e+00
      vertex 2.895771e+00 1.097547e+01 4.000000e+00
      vertex 3.090934e+00 1.050430e+01 4.000000e+00
    endloop
  endfacet
  facet normal 0.000000e+00 0.000000e+00 1.000000e+00
    outer loop
      vertex 2.300000e+01 1.950000e+01 4.000000e+00
      vertex 3.090934e+00 1.050430e+01 4.000000e+00
      vertex 2.300000e+01 2.800000e+00 4.000000e+00
    endloop
  endfacet
  facet normal 0.000000e+00 0.000000e+00 1.000000e+00
    outer loop
      vertex 2.300000e+01 2.800000e+00 4.000000e+00
      vertex 3.090934e+00 1.050430e+01 4.000000e+00
      vertex 3.209987e+00 1.000841e+01 4.000000e+00
    endloop
  endfacet
  facet normal 0.000000e+00 0.000000e+00 1.000000e+00
    outer loop
      vertex 2.300000e+01 2.800000e+00 4.000000e+00
      vertex 3.209987e+00 1.000841e+01 4.000000e+00
      vertex 3.250000e+00 9.500000e+00 4.000000e+00
    endloop
  endfacet
  facet normal 0.000000e+00 0.000000e+00 1.000000e+00
    outer loop
      vertex 3.250000e+00 9.500000e+00 4.000000e+00
      vertex 3.209987e+00 8.991588e+00 4.000000e+00
      vertex 2.300000e+01 2.800000e+00 4.000000e+00
    endloop
  endfacet
  facet normal 0.000000e+00 0.000000e+00 1.000000e+00
    outer loop
      vertex 2.300000e+01 2.800000e+00 4.000000e+00
      vertex 3.209987e+00 8.991588e+00 4.000000e+00
      vertex 3.090934e+00 8.495695e+00 4.000000e+00
    endloop
  endfacet
  facet normal 0.000000e+00 0.000000e+00 1.000000e+00
    outer loop
      vertex 2.300000e+01 2.800000e+00 4.000000e+00
      vertex 3.090934e+00 8.495695e+00 4.000000e+00
      vertex 2.895771e+00 8.024530e+00 4.000000e+00
    endloop
  endfacet
  facet normal 0.000000e+00 0.000000e+00 1.000000e+00
    outer loop
      vertex 2.895771e+00 8.024530e+00 4.000000e+00
      vertex 2.629305e+00 7.589698e+00 4.000000e+00
      vertex 2.300000e+01 2.800000e+00 4.000000e+00
    endloop
  endfacet
  facet normal 0.000000e+00 0.000000e+00 1.000000e+00
    outer loop
      vertex 2.300000e+01 2.800000e+00 4.000000e+00
      vertex 2.629305e+00 7.589698e+00 4.000000e+00
      vertex 2.298097e+00 7.201903e+00 4.000000e+00
    endloop
  endfacet
  facet normal 0.000000e+00 0.000000e+00 1.000000e+00
    outer loop
      vertex 2.300000e+01 2.800000e+00 4.000000e+00
      vertex 2.298097e+00 7.201903e+00 4.000000e+00
      vertex 1.910302e+00 6.870695e+00 4.000000e+00
    endloop
  endfacet
  facet normal 0.000000e+00 0.000000e+00 1.000000e+00
    outer loop
      vertex 1.910302e+00 6.870695e+00 4.000000e+00
      vertex 1.475469e+00 6.604229e+00 4.000000e+00
      vertex 2.300000e+01 2.800000e+00 4.000000e+00
    endloop
  endfacet
  facet normal 0.000000e+00 0.000000e+00 1.000000e+00
    outer loop
      vertex 2.300000e+01 2.800000e+00 4.000000e+00
      vertex 1.475469e+00 6.604229e+00 4.000000e+00
      vertex 1.004305e+00 6.409066e+00 4.000000e+00
    endloop
  endfacet
  facet normal 0.000000e+00 0.000000e+00 1.000000e+00
    outer loop
      vertex 2.300000e+01 2.800000e+00 4.000000e+00
      vertex 1.004305e+00 6.409066e+00 4.000000e+00
      vertex 5.084120e-01 6.290013e+00 4.000000e+00
    endloop
  endfacet
  facet normal 0.000000e+00 0.000000e+00 1.000000e+00
    outer loop
      vertex 5.084120e-01 6.290013e+00 4.000000e+00
      vertex 1.990051e-16 6.250000e+00 4.000000e+00
      vertex 2.300000e+01 2.800000e+00 4.000000e+00
    endloop
  endfacet
  facet normal 0.000000e+00 0.000000e+00 1.000000e+00
    outer loop
      vertex 2.300000e+01 2.800000e+00 4.000000e+00
      vertex 1.990051e-16 6.250000e+00 4.000000e+00
      vertex -2.300000e+01 2.800000e+00 4.000000e+00
    endloop
  endfacet
  facet normal 0.000000e+00 0.000000e+00 1.000000e+00
    outer loop
      vertex -2.300000e+01 2.800000e+00 4.000000e+00
      vertex 1.990051e-16 6.250000e+00 4.000000e+00
      vertex -5.084120e-01 6.290013e+00 4.000000e+00
    endloop
  endfacet
  facet normal 0.000000e+00 0.000000e+00 1.000000e+00
    outer loop
      vertex -2.300000e+01 2.800000e+00 4.000000e+00
      vertex -5.084120e-01 6.290013e+00 4.000000e+00
      vertex -1.004305e+00 6.409066e+00 4.000000e+00
    endloop
  endfacet
  facet normal 0.000000e+00 0.000000e+00 1.000000e+00
    outer loop
      vertex -1.004305e+00 6.409066e+00 4.000000e+00
      vertex -1.475469e+00 6.604229e+00 4.000000e+00
      vertex -2.300000e+01 2.800000e+00 4.000000e+00
    endloop
  endfacet
  facet normal 0.000000e+00 0.000000e+00 1.000000e+00
    outer loop
      vertex -2.300000e+01 2.800000e+00 4.000000e+00
      vertex -1.475469e+00 6.604229e+00 4.000000e+00
      vertex -1.910302e+00 6.870695e+00 4.000000e+00
    endloop
  endfacet
  facet normal 0.000000e+00 0.000000e+00 1.000000e+00
    outer loop
      vertex -2.300000e+01 2.800000e+00 4.000000e+00
      vertex -1.910302e+00 6.870695e+00 4.000000e+00
      vertex -2.298097e+00 7.201903e+00 4.000000e+00
    endloop
  endfacet
  facet normal 0.000000e+00 0.000000e+00 1.000000e+00
    outer loop
      vertex -2.298097e+00 7.201903e+00 4.000000e+00
      vertex -2.629305e+00 7.589698e+00 4.000000e+00
      vertex -2.300000e+01 2.800000e+00 4.000000e+00
    endloop
  endfacet
  facet normal 0.000000e+00 0.000000e+00 1.000000e+00
    outer loop
      vertex -2.300000e+01 2.800000e+00 4.000000e+00
      vertex -2.629305e+00 7.589698e+00 4.000000e+00
      vertex -2.895771e+00 8.024530e+00 4.000000e+00
    endloop
  endfacet
  facet normal 0.000000e+00 0.000000e+00 1.000000e+00
    outer loop
      vertex -2.300000e+01 2.800000e+00 4.000000e+00
      vertex -2.895771e+00 8.024530e+00 4.000000e+00
      vertex -3.090934e+00 8.495695e+00 4.000000e+00
    endloop
  endfacet
  facet normal 0.000000e+00 0.000000e+00 1.000000e+00
    outer loop
      vertex -3.090934e+00 8.495695e+00 4.000000e+00
      vertex -3.209987e+00 8.991588e+00 4.000000e+00
      vertex -2.300000e+01 2.800000e+00 4.000000e+00
    endloop
  endfacet
  facet normal -0.000000e+00 -1.000000e+00 -0.000000e+00
    outer loop
      vertex 2.300000e+01 1.950000e+01 2.500000e+01
      vertex -2.300000e+01 1.950000e+01 2.500000e+01
      vertex 2.300000e+01 1.950000e+01 4.000000e+00
    endloop
  endfacet
  facet normal 0.000000e+00 -1.000000e+00 0.000000e+00
    outer loop
      vertex 2.300000e+01 1.950000e+01 4.000000e+00
      vertex -2.300000e+01 1.950000e+01 2.500000e+01
      vertex -2.300000e+01 1.950000e+01 4.000000e+00
    endloop
  endfacet
  facet normal 1.000000e+00 0.000000e+00 0.000000e+00
    outer loop
      vertex -2.300000e+01 2.800000e+00 4.000000e+00
      vertex -2.300000e+01 1.950000e+01 4.000000e+00
      vertex -2.300000e+01 1.750000e+01 2.500000e+01
    endloop
  endfacet
  facet normal 1.000000e+00 0.000000e+00 0.000000e+00
    outer loop
      vertex -2.300000e+01 1.750000e+01 2.500000e+01
      vertex -2.300000e+01 1.950000e+01 4.000000e+00
      vertex -2.300000e+01 1.950000e+01 2.500000e+01
    endloop
  endfacet
  facet normal 0.000000e+00 -8.192319e-01 5.734624e-01
    outer loop
      vertex 2.300000e+01 1.750000e+01 2.500000e+01
      vertex 2.300000e+01 2.800000e+00 4.000000e+00
      vertex 2.500000e+01 1.750000e+01 2.500000e+01
    endloop
  endfacet
  facet normal 9.313589e-16 -8.192319e-01 5.734624e-01
    outer loop
      vertex 2.500000e+01 1.750000e+01 2.500000e+01
      vertex 2.300000e+01 2.800000e+00 4.000000e+00
      vertex 2.500000e+01 0.000000e+00 0.000000e+00
    endloop
  endfacet
  facet normal -3.954479e-17 -8.192319e-01 5.734624e-01
    outer loop
      vertex 2.500000e+01 0.000000e+00 0.000000e+00
      vertex 2.300000e+01 2.800000e+00 4.000000e+00
      vertex -2.300000e+01 2.800000e+00 4.000000e+00
    endloop
  endfacet
  facet normal 0.000000e+00 -8.192319e-01 5.734624e-01
    outer loop
      vertex 2.500000e+01 0.000000e+00 0.000000e+00
      vertex -2.300000e+01 2.800000e+00 4.000000e+00
      vertex -2.500000e+01 0.000000e+00 0.000000e+00
    endloop
  endfacet
  facet normal 0.000000e+00 -8.192319e-01 5.734624e-01
    outer loop
      vertex -2.500000e+01 0.000000e+00 0.000000e+00
      vertex -2.300000e+01 2.800000e+00 4.000000e+00
      vertex -2.500000e+01 1.750000e+01 2.500000e+01
    endloop
  endfacet
  facet normal 0.000000e+00 -8.192319e-01 5.734624e-01
    outer loop
      vertex -2.500000e+01 1.750000e+01 2.500000e+01
      vertex -2.300000e+01 2.800000e+00 4.000000e+00
      vertex -2.300000e+01 1.750000e+01 2.500000e+01
    endloop
  endfacet
  facet normal -1.000000e+00 0.000000e+00 0.000000e+00
    outer loop
      vertex -2.500000e+01 0.000000e+00 0.000000e+00
      vertex -2.500000e+01 1.750000e+01 2.500000e+01
      vertex -2.500000e+01 3.500000e+01 0.000000e+00
    endloop
  endfacet
  facet normal -1.000000e+00 0.000000e+00 0.000000e+00
    outer loop
      vertex -2.500000e+01 3.500000e+01 0.000000e+00
      vertex -2.500000e+01 1.750000e+01 2.500000e+01
      vertex -2.500000e+01 3.500000e+01 2.500000e+01
    endloop
  endfacet
  facet normal 1.000000e+00 3.229740e-16 0.000000e+00
    outer loop
      vertex -6.000000e+00 2.900000e+01 2.500000e+01
      vertex -6.000000e+00 2.350000e+01 2.500000e+01
      vertex -6.000000e+00 2.900000e+01 2.000000e+01
    endloop
  endfacet
  facet normal 1.000000e+00 3.229740e-16 0.000000e+00
    outer loop
      vertex -6.000000e+00 2.900000e+01 2.000000e+01
      vertex -6.000000e+00 2.350000e+01 2.500000e+01
      vertex -6.000000e+00 2.350000e+01 2.000000e+01
    endloop
  endfacet
  facet normal 0.000000e+00 1.000000e+00 0.000000e+00
    outer loop
      vertex -6.000000e+00 2.350000e+01 2.500000e+01
      vertex 6.000000e+00 2.350000e+01 2.500000e+01
      vertex -6.000000e+00 2.350000e+01 2.000000e+01
    endloop
  endfacet
  facet normal 0.000000e+00 1.000000e+00 0.000000e+00
    outer loop
      vertex -6.000000e+00 2.350000e+01 2.000000e+01
      vertex 6.000000e+00 2.350000e+01 2.500000e+01
      vertex 6.000000e+00 2.350000e+01 2.000000e+01
    endloop
  endfacet
  facet normal -1.000000e+00 0.000000e+00 0.000000e+00
    outer loop
      vertex 6.000000e+00 2.350000e+01 2.500000e+01
      vertex 6.000000e+00 2.900000e+01 2.500000e+01
      vertex 6.000000e+00 2.350000e+01 2.000000e+01
    endloop
  endfacet
  facet normal -1.000000e+00 0.000000e+00 0.000000e+00
    outer loop
      vertex 6.000000e+00 2.350000e+01 2.000000e+01
      vertex 6.000000e+00 2.900000e+01 2.500000e+01
      vertex 6.000000e+00 2.900000e+01 2.000000e+01
    endloop
  endfacet
  facet normal 0.000000e+00 0.000000e+00 1.000000e+00
    outer loop
      vertex 6.000000e+00 2.900000e+01 2.000000e+01
      vertex -6.000000e+00 2.900000e+01 2.000000e+01
      vertex 6.000000e+00 2.350000e+01 2.000000e+01
    endloop
  endfacet
  facet normal 0.000000e+00 0.000000e+00 1.000000e+00
    outer loop
      vertex 6.000000e+00 2.350000e+01 2.000000e+01
      vertex -6.000000e+00 2.900000e+01 2.000000e+01
      vertex -6.000000e+00 2.350000e+01 2.000000e+01
    endloop
  endfacet
  facet normal 0.000000e+00 0.000000e+00 1.000000e+00
    outer loop
      vertex 2.300000e+01 1.750000e+01 2.500000e+01
      vertex 2.500000e+01 1.750000e+01 2.500000e+01
      vertex 2.300000e+01 1.950000e+01 2.500000e+01
    endloop
  endfacet
  facet normal 0.000000e+00 0.000000e+00 1.000000e+00
    outer loop
      vertex 2.300000e+01 1.950000e+01 2.500000e+01
      vertex 2.500000e+01 1.750000e+01 2.500000e+01
      vertex 2.315000e+01 2.900000e+01 2.500000e+01
    endloop
  endfacet
  facet normal 0.000000e+00 0.000000e+00 1.000000e+00
    outer loop
      vertex 2.300000e+01 1.950000e+01 2.500000e+01
      vertex 2.315000e+01 2.900000e+01 2.500000e+01
      vertex 6.000000e+00 2.350000e+01 2.500000e+01
    endloop
  endfacet
  facet normal 0.000000e+00 0.000000e+00 1.000000e+00
    outer loop
      vertex 6.000000e+00 2.350000e+01 2.500000e+01
      vertex 2.315000e+01 2.900000e+01 2.500000e+01
      vertex 6.000000e+00 2.900000e+01 2.500000e+01
    endloop
  endfacet
  facet normal 0.000000e+00 0.000000e+00 1.000000e+00
    outer loop
      vertex 2.500000e+01 1.750000e+01 2.500000e+01
      vertex 2.500000e+01 3.500000e+01 2.500000e+01
      vertex 2.315000e+01 2.900000e+01 2.500000e+01
    endloop
  endfacet
  facet normal 0.000000e+00 0.000000e+00 1.000000e+00
    outer loop
      vertex 2.315000e+01 2.900000e+01 2.500000e+01
      vertex 2.500000e+01 3.500000e+01 2.500000e+01
      vertex 2.315000e+01 3.350000e+01 2.500000e+01
    endloop
  endfacet
  facet normal 0.000000e+00 0.000000e+00 1.000000e+00
    outer loop
      vertex 2.315000e+01 3.350000e+01 2.500000e+01
      vertex 2.500000e+01 3.500000e+01 2.500000e+01
      vertex 2.215000e+01 3.410000e+01 2.500000e+01
    endloop
  endfacet
  facet normal 0.000000e+00 0.000000e+00 1.000000e+00
    outer loop
      vertex 2.315000e+01 3.350000e+01 2.500000e+01
      vertex 2.215000e+01 3.410000e+01 2.500000e+01
      vertex 2.215000e+01 3.350000e+01 2.500000e+01
    endloop
  endfacet
  facet normal 0.000000e+00 0.000000e+00 1.000000e+00
    outer loop
      vertex 2.500000e+01 3.500000e+01 2.500000e+01
      vertex 2.300000e+01 3.500000e+01 2.500000e+01
      vertex 2.215000e+01 3.410000e+01 2.500000e+01
    endloop
  endfacet
  facet normal 0.000000e+00 0.000000e+00 1.000000e+00
    outer loop
      vertex 6.000000e+00 2.350000e+01 2.500000e+01
      vertex -6.000000e+00 2.350000e+01 2.500000e+01
      vertex 2.300000e+01 1.950000e+01 2.500000e+01
    endloop
  endfacet
  facet normal 0.000000e+00 0.000000e+00 1.000000e+00
    outer loop
      vertex 2.300000e+01 1.950000e+01 2.500000e+01
      vertex -6.000000e+00 2.350000e+01 2.500000e+01
      vertex -2.300000e+01 1.950000e+01 2.500000e+01
    endloop
  endfacet
  facet normal 0.000000e+00 0.000000e+00 1.000000e+00
    outer loop
      vertex -2.300000e+01 1.950000e+01 2.500000e+01
      vertex -6.000000e+00 2.350000e+01 2.500000e+01
      vertex -2.315000e+01 2.900000e+01 2.500000e+01
    endloop
  endfacet
  facet normal 0.000000e+00 0.000000e+00 1.000000e+00
    outer loop
      vertex -2.300000e+01 1.950000e+01 2.500000e+01
      vertex -2.315000e+01 2.900000e+01 2.500000e+01
      vertex -2.500000e+01 1.750000e+01 2.500000e+01
    endloop
  endfacet
  facet normal 0.000000e+00 0.000000e+00 1.000000e+00
    outer loop
      vertex -2.500000e+01 1.750000e+01 2.500000e+01
      vertex -2.315000e+01 2.900000e+01 2.500000e+01
      vertex -2.500000e+01 3.500000e+01 2.500000e+01
    endloop
  endfacet
  facet normal 0.000000e+00 0.000000e+00 1.000000e+00
    outer loop
      vertex -2.500000e+01 3.500000e+01 2.500000e+01
      vertex -2.315000e+01 2.900000e+01 2.500000e+01
      vertex -2.315000e+01 3.350000e+01 2.500000e+01
    endloop
  endfacet
  facet normal 0.000000e+00 0.000000e+00 1.000000e+00
    outer loop
      vertex -2.500000e+01 3.500000e+01 2.500000e+01
      vertex -2.315000e+01 3.350000e+01 2.500000e+01
      vertex -2.215000e+01 3.410000e+01 2.500000e+01
    endloop
  endfacet
  facet normal 0.000000e+00 0.000000e+00 1.000000e+00
    outer loop
      vertex -2.215000e+01 3.410000e+01 2.500000e+01
      vertex -2.315000e+01 3.350000e+01 2.500000e+01
      vertex -2.215000e+01 3.350000e+01 2.500000e+01
    endloop
  endfacet
  facet normal 0.000000e+00 0.000000e+00 1.000000e+00
    outer loop
      vertex -6.000000e+00 2.350000e+01 2.500000e+01
      vertex -6.000000e+00 2.900000e+01 2.500000e+01
      vertex -2.315000e+01 2.900000e+01 2.500000e+01
    endloop
  endfacet
  facet normal 0.000000e+00 0.000000e+00 1.000000e+00
    outer loop
      vertex -2.215000e+01 3.410000e+01 2.500000e+01
      vertex -2.300000e+01 3.500000e+01 2.500000e+01
      vertex -2.500000e+01 3.500000e+01 2.500000e+01
    endloop
  endfacet
  facet normal 0.000000e+00 0.000000e+00 1.000000e+00
    outer loop
      vertex -2.500000e+01 1.750000e+01 2.500000e+01
      vertex -2.300000e+01 1.750000e+01 2.500000e+01
      vertex -2.300000e+01 1.950000e+01 2.500000e+01
    endloop
  endfacet
  facet normal 0.000000e+00 -1.000000e+00 0.000000e+00
    outer loop
      vertex 2.315000e+01 3.350000e+01 0.000000e+00
      vertex 2.315000e+01 3.350000e+01 2.500000e+01
      vertex 2.215000e+01 3.350000e+01 0.000000e+00
    endloop
  endfacet
  facet normal 0.000000e+00 -1.000000e+00 0.000000e+00
    outer loop
      vertex 2.215000e+01 3.350000e+01 0.000000e+00
      vertex 2.315000e+01 3.350000e+01 2.500000e+01
      vertex 2.215000e+01 3.350000e+01 2.500000e+01
    endloop
  endfacet
  facet normal -1.000000e+00 0.000000e+00 0.000000e+00
    outer loop
      vertex 2.215000e+01 3.350000e+01 0.000000e+00
      vertex 2.215000e+01 3.350000e+01 2.500000e+01
      vertex 2.215000e+01 3.410000e+01 0.000000e+00
    endloop
  endfacet
  facet normal -1.000000e+00 0.000000e+00 0.000000e+00
    outer loop
      vertex 2.215000e+01 3.410000e+01 0.000000e+00
      vertex 2.215000e+01 3.350000e+01 2.500000e+01
      vertex 2.215000e+01 3.410000e+01 2.500000e+01
    endloop
  endfacet
  facet normal -7.270132e-01 6.866235e-01 0.000000e+00
    outer loop
      vertex 2.300000e+01 3.500000e+01 0.000000e+00
      vertex 2.215000e+01 3.410000e+01 0.000000e+00
      vertex 2.300000e+01 3.500000e+01 2.500000e+01
    endloop
  endfacet
  facet normal -7.270132e-01 6.866235e-01 0.000000e+00
    outer loop
      vertex 2.300000e+01 3.500000e+01 2.500000e+01
      vertex 2.215000e+01 3.410000e+01 0.000000e+00
      vertex 2.215000e+01 3.410000e+01 2.500000e+01
    endloop
  endfacet
  facet normal 7.270132e-01 6.866235e-01 0.000000e+00
    outer loop
      vertex -2.215000e+01 3.410000e+01 0.000000e+00
      vertex -2.300000e+01 3.500000e+01 0.000000e+00
      vertex -2.215000e+01 3.410000e+01 2.500000e+01
    endloop
  endfacet
  facet normal 7.270132e-01 6.866235e-01 0.000000e+00
    outer loop
      vertex -2.215000e+01 3.410000e+01 2.500000e+01
      vertex -2.300000e+01 3.500000e+01 0.000000e+00
      vertex -2.300000e+01 3.500000e+01 2.500000e+01
    endloop
  endfacet
  facet normal 1.000000e+00 0.000000e+00 0.000000e+00
    outer loop
      vertex -2.215000e+01 3.410000e+01 0.000000e+00
      vertex -2.215000e+01 3.410000e+01 2.500000e+01
      vertex -2.215000e+01 3.350000e+01 0.000000e+00
    endloop
  endfacet
  facet normal 1.000000e+00 0.000000e+00 0.000000e+00
    outer loop
      vertex -2.215000e+01 3.350000e+01 0.000000e+00
      vertex -2.215000e+01 3.410000e+01 2.500000e+01
      vertex -2.215000e+01 3.350000e+01 2.500000e+01
    endloop
  endfacet
  facet normal 0.000000e+00 -1.000000e+00 0.000000e+00
    outer loop
      vertex -2.215000e+01 3.350000e+01 0.000000e+00
      vertex -2.215000e+01 3.350000e+01 2.500000e+01
      vertex -2.315000e+01 3.350000e+01 0.000000e+00
    endloop
  endfacet
  facet normal 0.000000e+00 -1.000000e+00 0.000000e+00
    outer loop
      vertex -2.315000e+01 3.350000e+01 0.000000e+00
      vertex -2.215000e+01 3.350000e+01 2.500000e+01
      vertex -2.315000e+01 3.350000e+01 2.500000e+01
    endloop
  endfacet
  facet normal 1.000000e+00 0.000000e+00 0.000000e+00
    outer loop
      vertex -2.315000e+01 2.900000e+01 0.000000e+00
      vertex -2.315000e+01 3.350000e+01 0.000000e+00
      vertex -2.315000e+01 2.900000e+01 2.500000e+01
    endloop
  endfacet
  facet normal 1.000000e+00 0.000000e+00 0.000000e+00
    outer loop
      vertex -2.315000e+01 2.900000e+01 2.500000e+01
      vertex -2.315000e+01 3.350000e+01 0.000000e+00
      vertex -2.315000e+01 3.350000e+01 2.500000e+01
    endloop
  endfacet
  facet normal 0.000000e+00 1.000000e+00 0.000000e+00
    outer loop
      vertex 6.000000e+00 2.900000e+01 2.500000e+01
      vertex 2.315000e+01 2.900000e+01 2.500000e+01
      vertex 6.000000e+00 2.900000e+01 2.000000e+01
    endloop
  endfacet
  facet normal 0.000000e+00 1.000000e+00 0.000000e+00
    outer loop
      vertex 6.000000e+00 2.900000e+01 2.000000e+01
      vertex 2.315000e+01 2.900000e+01 2.500000e+01
      vertex 2.315000e+01 2.900000e+01 0.000000e+00
    endloop
  endfacet
  facet normal 0.000000e+00 1.000000e+00 0.000000e+00
    outer loop
      vertex 6.000000e+00 2.900000e+01 2.000000e+01
      vertex 2.315000e+01 2.900000e+01 0.000000e+00
      vertex -2.315000e+01 2.900000e+01 0.000000e+00
    endloop
  endfacet
  facet normal 0.000000e+00 1.000000e+00 0.000000e+00
    outer loop
      vertex 6.000000e+00 2.900000e+01 2.000000e+01
      vertex -2.315000e+01 2.900000e+01 0.000000e+00
      vertex -6.000000e+00 2.900000e+01 2.000000e+01
    endloop
  endfacet
  facet normal 0.000000e+00 1.000000e+00 0.000000e+00
    outer loop
      vertex -6.000000e+00 2.900000e+01 2.000000e+01
      vertex -2.315000e+01 2.900000e+01 0.000000e+00
      vertex -2.315000e+01 2.900000e+01 2.500000e+01
    endloop
  endfacet
  facet normal 0.000000e+00 1.000000e+00 0.000000e+00
    outer loop
      vertex -6.000000e+00 2.900000e+01 2.000000e+01
      vertex -2.315000e+01 2.900000e+01 2.500000e+01
      vertex -6.000000e+00 2.900000e+01 2.500000e+01
    endloop
  endfacet
  facet normal -1.000000e+00 0.000000e+00 0.000000e+00
    outer loop
      vertex 2.315000e+01 3.350000e+01 0.000000e+00
      vertex 2.315000e+01 2.900000e+01 0.000000e+00
      vertex 2.315000e+01 3.350000e+01 2.500000e+01
    endloop
  endfacet
  facet normal -1.000000e+00 0.000000e+00 0.000000e+00
    outer loop
      vertex 2.315000e+01 3.350000e+01 2.500000e+01
      vertex 2.315000e+01 2.900000e+01 0.000000e+00
      vertex 2.315000e+01 2.900000e+01 2.500000e+01
    endloop
  endfacet
  facet normal 0.000000e+00 1.000000e+00 0.000000e+00
    outer loop
      vertex -2.300000e+01 3.500000e+01 2.500000e+01
      vertex -2.300000e+01 3.500000e+01 0.000000e+00
      vertex -2.500000e+01 3.500000e+01 2.500000e+01
    endloop
  endfacet
  facet normal 0.000000e+00 1.000000e+00 0.000000e+00
    outer loop
      vertex -2.500000e+01 3.500000e+01 2.500000e+01
      vertex -2.300000e+01 3.500000e+01 0.000000e+00
      vertex -2.500000e+01 3.500000e+01 0.000000e+00
    endloop
  endfacet
  facet normal 1.000000e+00 0.000000e+00 0.000000e+00
    outer loop
      vertex 2.500000e+01 0.000000e+00 0.000000e+00
      vertex 2.500000e+01 3.500000e+01 0.000000e+00
      vertex 2.500000e+01 1.750000e+01 2.500000e+01
    endloop
  endfacet
  facet normal 1.000000e+00 0.000000e+00 0.000000e+00
    outer loop
      vertex 2.500000e+01 1.750000e+01 2.500000e+01
      vertex 2.500000e+01 3.500000e+01 0.000000e+00
      vertex 2.500000e+01 3.500000e+01 2.500000e+01
    endloop
  endfacet
  facet normal 0.000000e+00 0.000000e+00 -1.000000e+00
    outer loop
      vertex -3.209987e+00 1.000841e+01 0.000000e+00
      vertex -3.250000e+00 9.500000e+00 0.000000e+00
      vertex -2.500000e+01 0.000000e+00 0.000000e+00
    endloop
  endfacet
  facet normal 0.000000e+00 0.000000e+00 -1.000000e+00
    outer loop
      vertex -2.500000e+01 0.000000e+00 0.000000e+00
      vertex -3.250000e+00 9.500000e+00 0.000000e+00
      vertex -3.209987e+00 8.991588e+00 0.000000e+00
    endloop
  endfacet
  facet normal 0.000000e+00 0.000000e+00 -1.000000e+00
    outer loop
      vertex -2.500000e+01 0.000000e+00 0.000000e+00
      vertex -3.209987e+00 8.991588e+00 0.000000e+00
      vertex -3.090934e+00 8.495695e+00 0.000000e+00
    endloop
  endfacet
  facet normal 0.000000e+00 0.000000e+00 -1.000000e+00
    outer loop
      vertex -3.090934e+00 8.495695e+00 0.000000e+00
      vertex -2.895771e+00 8.024530e+00 0.000000e+00
      vertex -2.500000e+01 0.000000e+00 0.000000e+00
    endloop
  endfacet
  facet normal 0.000000e+00 0.000000e+00 -1.000000e+00
    outer loop
      vertex -2.500000e+01 0.000000e+00 0.000000e+00
      vertex -2.895771e+00 8.024530e+00 0.000000e+00
      vertex -2.629305e+00 7.589698e+00 0.000000e+00
    endloop
  endfacet
  facet normal 0.000000e+00 0.000000e+00 -1.000000e+00
    outer loop
      vertex -2.500000e+01 0.000000e+00 0.000000e+00
      vertex -2.629305e+00 7.589698e+00 0.000000e+00
      vertex -2.298097e+00 7.201903e+00 0.000000e+00
    endloop
  endfacet
  facet normal 0.000000e+00 0.000000e+00 -1.000000e+00
    outer loop
      vertex -2.298097e+00 7.201903e+00 0.000000e+00
      vertex -1.910302e+00 6.870695e+00 0.000000e+00
      vertex -2.500000e+01 0.000000e+00 0.000000e+00
    endloop
  endfacet
  facet normal 0.000000e+00 0.000000e+00 -1.000000e+00
    outer loop
      vertex -2.500000e+01 0.000000e+00 0.000000e+00
      vertex -1.910302e+00 6.870695e+00 0.000000e+00
      vertex -1.475469e+00 6.604229e+00 0.000000e+00
    endloop
  endfacet
  facet normal 0.000000e+00 0.000000e+00 -1.000000e+00
    outer loop
      vertex -2.500000e+01 0.000000e+00 0.000000e+00
      vertex -1.475469e+00 6.604229e+00 0.000000e+00
      vertex -1.004305e+00 6.409066e+00 0.000000e+00
    endloop
  endfacet
  facet normal 0.000000e+00 0.000000e+00 -1.000000e+00
    outer loop
      vertex -1.004305e+00 6.409066e+00 0.000000e+00
      vertex -5.084120e-01 6.290013e+00 0.000000e+00
      vertex -2.500000e+01 0.000000e+00 0.000000e+00
    endloop
  endfacet
  facet normal 0.000000e+00 0.000000e+00 -1.000000e+00
    outer loop
      vertex -2.500000e+01 0.000000e+00 0.000000e+00
      vertex -5.084120e-01 6.290013e+00 0.000000e+00
      vertex 1.990051e-16 6.250000e+00 0.000000e+00
    endloop
  endfacet
  facet normal 0.000000e+00 0.000000e+00 -1.000000e+00
    outer loop
      vertex -2.500000e+01 0.000000e+00 0.000000e+00
      vertex 1.990051e-16 6.250000e+00 0.000000e+00
      vertex 2.500000e+01 0.000000e+00 0.000000e+00
    endloop
  endfacet
  facet normal 0.000000e+00 0.000000e+00 -1.000000e+00
    outer loop
      vertex 2.500000e+01 0.000000e+00 0.000000e+00
      vertex 1.990051e-16 6.250000e+00 0.000000e+00
      vertex 5.084120e-01 6.290013e+00 0.000000e+00
    endloop
  endfacet
  facet normal 0.000000e+00 0.000000e+00 -1.000000e+00
    outer loop
      vertex 2.500000e+01 0.000000e+00 0.000000e+00
      vertex 5.084120e-01 6.290013e+00 0.000000e+00
      vertex 1.004305e+00 6.409066e+00 0.000000e+00
    endloop
  endfacet
  facet normal 0.000000e+00 0.000000e+00 -1.000000e+00
    outer loop
      vertex 1.004305e+00 6.409066e+00 0.000000e+00
      vertex 1.475469e+00 6.604229e+00 0.000000e+00
      vertex 2.500000e+01 0.000000e+00 0.000000e+00
    endloop
  endfacet
  facet normal 0.000000e+00 0.000000e+00 -1.000000e+00
    outer loop
      vertex 2.500000e+01 0.000000e+00 0.000000e+00
      vertex 1.475469e+00 6.604229e+00 0.000000e+00
      vertex 1.910302e+00 6.870695e+00 0.000000e+00
    endloop
  endfacet
  facet normal 0.000000e+00 0.000000e+00 -1.000000e+00
    outer loop
      vertex 2.500000e+01 0.000000e+00 0.000000e+00
      vertex 1.910302e+00 6.870695e+00 0.000000e+00
      vertex 2.298097e+00 7.201903e+00 0.000000e+00
    endloop
  endfacet
  facet normal 0.000000e+00 0.000000e+00 -1.000000e+00
    outer loop
      vertex 2.298097e+00 7.201903e+00 0.000000e+00
      vertex 2.629305e+00 7.589698e+00 0.000000e+00
      vertex 2.500000e+01 0.000000e+00 0.000000e+00
    endloop
  endfacet
  facet normal 0.000000e+00 0.000000e+00 -1.000000e+00
    outer loop
      vertex 2.500000e+01 0.000000e+00 0.000000e+00
      vertex 2.629305e+00 7.589698e+00 0.000000e+00
      vertex 2.895771e+00 8.024530e+00 0.000000e+00
    endloop
  endfacet
  facet normal 0.000000e+00 0.000000e+00 -1.000000e+00
    outer loop
      vertex 2.500000e+01 0.000000e+00 0.000000e+00
      vertex 2.895771e+00 8.024530e+00 0.000000e+00
      vertex 3.090934e+00 8.495695e+00 0.000000e+00
    endloop
  endfacet
  facet normal 0.000000e+00 0.000000e+00 -1.000000e+00
    outer loop
      vertex 3.090934e+00 8.495695e+00 0.000000e+00
      vertex 3.209987e+00 8.991588e+00 0.000000e+00
      vertex 2.500000e+01 0.000000e+00 0.000000e+00
    endloop
  endfacet
  facet normal 0.000000e+00 0.000000e+00 -1.000000e+00
    outer loop
      vertex 2.500000e+01 0.000000e+00 0.000000e+00
      vertex 3.209987e+00 8.991588e+00 0.000000e+00
      vertex 3.250000e+00 9.500000e+00 0.000000e+00
    endloop
  endfacet
  facet normal 0.000000e+00 0.000000e+00 -1.000000e+00
    outer loop
      vertex 2.500000e+01 0.000000e+00 0.000000e+00
      vertex 3.250000e+00 9.500000e+00 0.000000e+00
      vertex 3.209987e+00 1.000841e+01 0.000000e+00
    endloop
  endfacet
  facet normal 0.000000e+00 0.000000e+00 -1.000000e+00
    outer loop
      vertex 3.209987e+00 1.000841e+01 0.000000e+00
      vertex 3.090934e+00 1.050430e+01 0.000000e+00
      vertex 2.500000e+01 0.000000e+00 0.000000e+00
    endloop
  endfacet
  facet normal 0.000000e+00 0.000000e+00 -1.000000e+00
    outer loop
      vertex 2.500000e+01 0.000000e+00 0.000000e+00
      vertex 3.090934e+00 1.050430e+01 0.000000e+00
      vertex 2.315000e+01 2.900000e+01 0.000000e+00
    endloop
  endfacet
  facet normal 0.000000e+00 0.000000e+00 -1.000000e+00
    outer loop
      vertex 2.500000e+01 0.000000e+00 0.000000e+00
      vertex 2.315000e+01 2.900000e+01 0.000000e+00
      vertex 2.500000e+01 3.500000e+01 0.000000e+00
    endloop
  endfacet
  facet normal 0.000000e+00 0.000000e+00 -1.000000e+00
    outer loop
      vertex 2.500000e+01 3.500000e+01 0.000000e+00
      vertex 2.315000e+01 2.900000e+01 0.000000e+00
      vertex 2.315000e+01 3.350000e+01 0.000000e+00
    endloop
  endfacet
  facet normal 0.000000e+00 0.000000e+00 -1.000000e+00
    outer loop
      vertex 2.500000e+01 3.500000e+01 0.000000e+00
      vertex 2.315000e+01 3.350000e+01 0.000000e+00
      vertex 2.300000e+01 3.500000e+01 0.000000e+00
    endloop
  endfacet
  facet normal 0.000000e+00 0.000000e+00 -1.000000e+00
    outer loop
      vertex 2.300000e+01 3.500000e+01 0.000000e+00
      vertex 2.315000e+01 3.350000e+01 0.000000e+00
      vertex 2.215000e+01 3.410000e+01 0.000000e+00
    endloop
  endfacet
  facet normal 0.000000e+00 0.000000e+00 -1.000000e+00
    outer loop
      vertex 2.215000e+01 3.410000e+01 0.000000e+00
      vertex 2.315000e+01 3.350000e+01 0.000000e+00
      vertex 2.215000e+01 3.350000e+01 0.000000e+00
    endloop
  endfacet
  facet normal 0.000000e+00 0.000000e+00 -1.000000e+00
    outer loop
      vertex 3.090934e+00 1.050430e+01 0.000000e+00
      vertex 2.895771e+00 1.097547e+01 0.000000e+00
      vertex 2.315000e+01 2.900000e+01 0.000000e+00
    endloop
  endfacet
  facet normal 0.000000e+00 0.000000e+00 -1.000000e+00
    outer loop
      vertex 2.315000e+01 2.900000e+01 0.000000e+00
      vertex 2.895771e+00 1.097547e+01 0.000000e+00
      vertex 2.629305e+00 1.141030e+01 0.000000e+00
    endloop
  endfacet
  facet normal 0.000000e+00 0.000000e+00 -1.000000e+00
    outer loop
      vertex 2.315000e+01 2.900000e+01 0.000000e+00
      vertex 2.629305e+00 1.141030e+01 0.000000e+00
      vertex 2.298097e+00 1.179810e+01 0.000000e+00
    endloop
  endfacet
  facet normal 0.000000e+00 0.000000e+00 -1.000000e+00
    outer loop
      vertex 2.298097e+00 1.179810e+01 0.000000e+00
      vertex 1.910302e+00 1.212930e+01 0.000000e+00
      vertex 2.315000e+01 2.900000e+01 0.000000e+00
    endloop
  endfacet
  facet normal 0.000000e+00 0.000000e+00 -1.000000e+00
    outer loop
      vertex 2.315000e+01 2.900000e+01 0.000000e+00
      vertex 1.910302e+00 1.212930e+01 0.000000e+00
      vertex 1.475469e+00 1.239577e+01 0.000000e+00
    endloop
  endfacet
  facet normal 0.000000e+00 0.000000e+00 -1.000000e+00
    outer loop
      vertex 2.315000e+01 2.900000e+01 0.000000e+00
      vertex 1.475469e+00 1.239577e+01 0.000000e+00
      vertex 1.004305e+00 1.259093e+01 0.000000e+00
    endloop
  endfacet
  facet normal 0.000000e+00 0.000000e+00 -1.000000e+00
    outer loop
      vertex 1.004305e+00 1.259093e+01 0.000000e+00
      vertex 5.084120e-01 1.270999e+01 0.000000e+00
      vertex 2.315000e+01 2.900000e+01 0.000000e+00
    endloop
  endfacet
  facet normal 0.000000e+00 0.000000e+00 -1.000000e+00
    outer loop
      vertex 2.315000e+01 2.900000e+01 0.000000e+00
      vertex 5.084120e-01 1.270999e+01 0.000000e+00
      vertex 1.990051e-16 1.275000e+01 0.000000e+00
    endloop
  endfacet
  facet normal 0.000000e+00 0.000000e+00 -1.000000e+00
    outer loop
      vertex 2.315000e+01 2.900000e+01 0.000000e+00
      vertex 1.990051e-16 1.275000e+01 0.000000e+00
      vertex -2.315000e+01 2.900000e+01 0.000000e+00
    endloop
  endfacet
  facet normal 0.000000e+00 0.000000e+00 -1.000000e+00
    outer loop
      vertex -2.315000e+01 2.900000e+01 0.000000e+00
      vertex 1.990051e-16 1.275000e+01 0.000000e+00
      vertex -5.084120e-01 1.270999e+01 0.000000e+00
    endloop
  endfacet
  facet normal 0.000000e+00 0.000000e+00 -1.000000e+00
    outer loop
      vertex -2.315000e+01 2.900000e+01 0.000000e+00
      vertex -5.084120e-01 1.270999e+01 0.000000e+00
      vertex -1.004305e+00 1.259093e+01 0.000000e+00
    endloop
  endfacet
  facet normal 0.000000e+00 0.000000e+00 -1.000000e+00
    outer loop
      vertex -1.004305e+00 1.259093e+01 0.000000e+00
      vertex -1.475469e+00 1.239577e+01 0.000000e+00
      vertex -2.315000e+01 2.900000e+01 0.000000e+00
    endloop
  endfacet
  facet normal 0.000000e+00 0.000000e+00 -1.000000e+00
    outer loop
      vertex -2.315000e+01 2.900000e+01 0.000000e+00
      vertex -1.475469e+00 1.239577e+01 0.000000e+00
      vertex -1.910302e+00 1.212930e+01 0.000000e+00
    endloop
  endfacet
  facet normal 0.000000e+00 0.000000e+00 -1.000000e+00
    outer loop
      vertex -2.315000e+01 2.900000e+01 0.000000e+00
      vertex -1.910302e+00 1.212930e+01 0.000000e+00
      vertex -2.298097e+00 1.179810e+01 0.000000e+00
    endloop
  endfacet
  facet normal 0.000000e+00 0.000000e+00 -1.000000e+00
    outer loop
      vertex -2.298097e+00 1.179810e+01 0.000000e+00
      vertex -2.629305e+00 1.141030e+01 0.000000e+00
      vertex -2.315000e+01 2.900000e+01 0.000000e+00
    endloop
  endfacet
  facet normal 0.000000e+00 0.000000e+00 -1.000000e+00
    outer loop
      vertex -2.315000e+01 2.900000e+01 0.000000e+00
      vertex -2.629305e+00 1.141030e+01 0.000000e+00
      vertex -2.895771e+00 1.097547e+01 0.000000e+00
    endloop
  endfacet
  facet normal 0.000000e+00 0.000000e+00 -1.000000e+00
    outer loop
      vertex -2.315000e+01 2.900000e+01 0.000000e+00
      vertex -2.895771e+00 1.097547e+01 0.000000e+00
      vertex -3.090934e+00 1.050430e+01 0.000000e+00
    endloop
  endfacet
  facet normal 0.000000e+00 0.000000e+00 -1.000000e+00
    outer loop
      vertex -2.315000e+01 2.900000e+01 0.000000e+00
      vertex -3.090934e+00 1.050430e+01 0.000000e+00
      vertex -2.500000e+01 0.000000e+00 0.000000e+00
    endloop
  endfacet
  facet normal 0.000000e+00 0.000000e+00 -1.000000e+00
    outer loop
      vertex -2.500000e+01 0.000000e+00 0.000000e+00
      vertex -3.090934e+00 1.050430e+01 0.000000e+00
      vertex -3.209987e+00 1.000841e+01 0.000000e+00
    endloop
  endfacet
  facet normal 0.000000e+00 0.000000e+00 -1.000000e+00
    outer loop
      vertex -2.500000e+01 0.000000e+00 0.000000e+00
      vertex -2.500000e+01 3.500000e+01 0.000000e+00
      vertex -2.315000e+01 2.900000e+01 0.000000e+00
    endloop
  endfacet
  facet normal 0.000000e+00 0.000000e+00 -1.000000e+00
    outer loop
      vertex -2.315000e+01 2.900000e+01 0.000000e+00
      vertex -2.500000e+01 3.500000e+01 0.000000e+00
      vertex -2.315000e+01 3.350000e+01 0.000000e+00
    endloop
  endfacet
  facet normal 0.000000e+00 0.000000e+00 -1.000000e+00
    outer loop
      vertex -2.315000e+01 3.350000e+01 0.000000e+00
      vertex -2.500000e+01 3.500000e+01 0.000000e+00
      vertex -2.300000e+01 3.500000e+01 0.000000e+00
    endloop
  endfacet
  facet normal 0.000000e+00 0.000000e+00 -1.000000e+00
    outer loop
      vertex -2.315000e+01 3.350000e+01 0.000000e+00
      vertex -2.300000e+01 3.500000e+01 0.000000e+00
      vertex -2.215000e+01 3.410000e+01 0.000000e+00
    endloop
  endfacet
  facet normal 0.000000e+00 0.000000e+00 -1.000000e+00
    outer loop
      vertex -2.215000e+01 3.410000e+01 0.000000e+00
      vertex -2.215000e+01 3.350000e+01 0.000000e+00
      vertex -2.315000e+01 3.350000e+01 0.000000e+00
    endloop
  endfacet
  facet normal 0.000000e+00 1.000000e+00 0.000000e+00
    outer loop
      vertex 2.300000e+01 3.500000e+01 0.000000e+00
      vertex 2.300000e+01 3.500000e+01 2.500000e+01
      vertex 2.500000e+01 3.500000e+01 0.000000e+00
    endloop
  endfacet
  facet normal 0.000000e+00 1.000000e+00 0.000000e+00
    outer loop
      vertex 2.500000e+01 3.500000e+01 0.000000e+00
      vertex 2.300000e+01 3.500000e+01 2.500000e+01
      vertex 2.500000e+01 3.500000e+01 2.500000e+01
    endloop
  endfacet
endsolid Default
